<svg xmlns="http://www.w3.org/2000/svg" version="1.1" xmlns:xlink="http://www.w3.org/1999/xlink" width="200" height="200"><svg xmlns="http://www.w3.org/2000/svg" version="1.1" xmlns:xlink="http://www.w3.org/1999/xlink" width="200" height="200"><svg xmlns="http://www.w3.org/2000/svg" viewBox="0 0 200 200" width="200" height="200">
  <defs>
    <linearGradient id="gradient1" x1="0%" y1="0%" x2="100%" y2="100%">
      <stop offset="0%" style="stop-color:#87CEEB;stop-opacity:1"></stop>
      <stop offset="100%" style="stop-color:#FFB6C1;stop-opacity:1"></stop>
    </linearGradient>
  </defs>
  
  <!-- Background circle -->
  <circle cx="100" cy="100" r="95" fill="url(#gradient1)" opacity="0.9"></circle>
  
  <!-- Puzzle pieces -->
  <g transform="translate(40, 40)">
    <!-- Top-left piece -->
    <path d="M 0,0 L 50,0 Q 55,10 50,20 L 50,50 Q 40,55 30,50 L 0,50 Z" fill="#FFFFFF" stroke="#2C3E50" stroke-width="2" opacity="0.95"></path>
    
    <!-- Top-right piece -->
    <path d="M 60,0 L 120,0 L 120,50 Q 110,55 100,50 L 60,50 Q 55,40 60,30 Z" fill="#FFD700" stroke="#2C3E50" stroke-width="2" opacity="0.95"></path>
    
    <!-- Bottom-left piece -->
    <path d="M 0,60 L 50,60 Q 55,70 50,80 L 50,120 L 0,120 Z" fill="#98D8C8" stroke="#2C3E50" stroke-width="2" opacity="0.95"></path>
    
    <!-- Bottom-right piece -->
    <path d="M 60,60 Q 65,50 70,60 L 120,60 L 120,120 L 60,120 Z" fill="#FF69B4" stroke="#2C3E50" stroke-width="2" opacity="0.95"></path>
  </g>
  
  <!-- Sparkles -->
  <circle cx="30" cy="30" r="4" fill="#FFFFFF" opacity="0.8"></circle>
  <circle cx="170" cy="35" r="3" fill="#FFFFFF" opacity="0.8"></circle>
  <circle cx="25" cy="170" r="3" fill="#FFFFFF" opacity="0.8"></circle>
  <circle cx="175" cy="165" r="4" fill="#FFFFFF" opacity="0.8"></circle>
</svg></svg><style>@media (prefers-color-scheme: light) { :root { filter: none; } }
@media (prefers-color-scheme: dark) { :root { filter: none; } }
</style></svg>